# xmcd
#
# Track frame offsets:
#  150
#  12922
#  20750
#  23370
#  27450
#  30857
#  34865
#  39860
#  42017
#  43597
#  47402
#  51000
#  53857
#  57577
#  60475
#  65012
#  66857
#  68642
#  72322
#  75257
#  78425
#  81887
#  84157
#  86529
#  89955
#  92955
#  96167
#  99405
#  103010
#  106410
#  108460
#  110772
#  112822
#  116040
#  118595
#  121685
#  125007
#  127600
#  129787
#  132845
#  137930
#  139710
#  142835
#  145695
#  147132
#  150327
#  153862
#  156902
#  160725
#  163317
#  165420
#  168810
#  172170
#  175547
#  179592
#  182082
#  184040
#  187687
#  191012
#  192690
#  194832
#  197860
#  200382
#  202105
#  207717
#  209432
#  210617
#  218632
#  226915
#  235127
#  240555
#  248482
#  256792
#  269167
#
# Disc length: 3717 seconds
#
# Revision: 0
# Processed by: cddbd v1.4PL0 Copyright (c) Steve Scherf et al.
# Submitted via: AltoMP3_Maker 3.0
#
DISCID=0e0e834a
DTITLE=Ken Chipkin - Blues/Rock Guitar US to UK
DYEAR=1900
DGENRE=
TTITLE0=Intro
TTITLE1=Tuning
TTITLE2=Part I - Rhythm parts, The Boogie pattern, Example 1
TTITLE3=Example 2
TTITLE4=The Power 5th Chord, Example 3
TTITLE5=Example 4
TTITLE6=Example 5
TTITLE7=Example 6
TTITLE8=Example 7
TTITLE9=Major Triads, Example 8
TTITLE10=Example 9
TTITLE11=Example 10
TTITLE12=Dominant 7th, Example 11
TTITLE13=Example 12
TTITLE14=Example 13
TTITLE15=Example 14
TTITLE16=Example 15
TTITLE17=Dominant 7th w/o third, Example 16
TTITLE18=Example 17
TTITLE19=Dominant 9th, Example 18
TTITLE20=Example 19
TTITLE21=Example 20
TTITLE22=Dominant 7th (#9), Example 21
TTITLE23=Example 22
TTITLE24=Example 23
TTITLE25=Example 24
TTITLE26=Example 25
TTITLE27=Example 26
TTITLE28=Minor Triad, Example 27
TTITLE29=Example 28
TTITLE30=Example 29
TTITLE31=Example 30
TTITLE32=Example 31
TTITLE33=Example 32
TTITLE34=Example 33
TTITLE35=Example 34
TTITLE36=Example 35
TTITLE37=Part II - Riffs, Pentatonic Minor, Example 36
TTITLE38=Example 37
TTITLE39=Example 38
TTITLE40=Example 39
TTITLE41=Example 40
TTITLE42=Blues Scale Riffs, Example 41
TTITLE43=Example 42
TTITLE44=Example 43
TTITLE45=Example 44
TTITLE46=Example 45
TTITLE47=Riff/Chord Combos, Example 46
TTITLE48=Example 47
TTITLE49=Example 48
TTITLE50=Example 49
TTITLE51=Example 50
TTITLE52=Example 51
TTITLE53=Example 52
TTITLE54=Example 53
TTITLE55=Example 54
TTITLE56=Example 55
TTITLE57=Example 56
TTITLE58=Double-Stops Riffs Mixolydian Mode, Example 57
TTITLE59=Example 58
TTITLE60=Example 59
TTITLE61=Example 60
TTITLE62=Part III - Blues/Rock Lead Guitar, Example 61
TTITLE63=Example 62
TTITLE64=Example 65
TTITLE65=Mixolydian Mode, Example 66, Refer to the book
TTITLE66=Part IV - Guitar Greats, US to UK, Allman Brothers
TTITLE67=Jeff Beck
TTITLE68=Eric Clapton
TTITLE69=Jimmy Page
TTITLE70=Johnny Winter
TTITLE71=Billy Gibbons (ZZ Top)
TTITLE72=Jimi Hendrix
TTITLE73=The Rolling Stones
EXTD=
EXTT0=
EXTT1=
EXTT2=
EXTT3=
EXTT4=
EXTT5=
EXTT6=
EXTT7=
EXTT8=
EXTT9=
EXTT10=
EXTT11=
EXTT12=
EXTT13=
EXTT14=
EXTT15=
EXTT16=
EXTT17=
EXTT18=
EXTT19=
EXTT20=
EXTT21=
EXTT22=
EXTT23=
EXTT24=
EXTT25=
EXTT26=
EXTT27=
EXTT28=
EXTT29=
EXTT30=
EXTT31=
EXTT32=
EXTT33=
EXTT34=
EXTT35=
EXTT36=
EXTT37=
EXTT38=
EXTT39=
EXTT40=
EXTT41=
EXTT42=
EXTT43=
EXTT44=
EXTT45=
EXTT46=
EXTT47=
EXTT48=
EXTT49=
EXTT50=
EXTT51=
EXTT52=
EXTT53=
EXTT54=
EXTT55=
EXTT56=
EXTT57=
EXTT58=
EXTT59=
EXTT60=
EXTT61=
EXTT62=
EXTT63=
EXTT64=
EXTT65=
EXTT66=
EXTT67=
EXTT68=
EXTT69=
EXTT70=
EXTT71=
EXTT72=
EXTT73=
PLAYORDER=
